# xmcd
#
# Track frame offsets:
#  150
#  10925
#  28153
#  45363
#  62941
#  78158
#  95582
#  109690
#  133947
#  153041
#  167079
#  189743
#  207041
#  222292
#
# Disc length: 3260 seconds
#
# Revision: 1
# Processed by: cddbd v1.5.1PL0 Copyright (c) Steve Scherf et al.
# Submitted via: Collectorz.com Music Collector 6.9
#
DISCID=b80cba0e
DTITLE=steve earle - Live At The Stone, San Franscisco, Ca On July 26th 1986
DYEAR=1986
DGENRE=
TTITLE0=Guitar Town
TTITLE1=Goodbyes Are All We Have Left
TTITLE2=Hillbilly Highway
TTITLE3=Good Ol Boy
TTITLE4=My Old Friend The Blues
TTITLE5=Someday
TTITLE6=Think It Over
TTITLE7=Little Rock N Roller
TTITLE8=Fearless Heart
TTITLE9=Down The Road
TTITLE10=State Trooper
TTITLE11=Baby I Love You Too Much
TTITLE12=San Antonio Girl
TTITLE13=Angry Young Man
EXTD=
EXTT0=
EXTT1=
EXTT2=
EXTT3=
EXTT4=
EXTT5=
EXTT6=
EXTT7=
EXTT8=
EXTT9=
EXTT10=
EXTT11=
EXTT12=
EXTT13=
PLAYORDER=
